<svg version="1.2" xmlns="http://www.w3.org/2000/svg" viewBox="0 0 260 51" width="260" height="51">
	<title>4651544-ai</title>
	<style>
		.s0 { fill: #c2f6f9 } 
		.s1 { fill: #000000 } 
	</style>
	<g id="&lt;Group&gt;">
		<path id="&lt;Compound Path&gt;" fill-rule="evenodd" class="s0" d="m4.3 8.4c-1.6-4 5.7-4.1 7.6-4.1q12.6 0 25.3 0 97.2 0 194.3 0c7.5 0 15.1-0.2 22.6 0.1q2.2 0 4.1 1c3.5 1.6-0.2 5.4-1.3 6.6-2.2 2.5-5.1 4.5-7.6 6.7-2 1.8-7.1 5.3-6.8 8.7 0.3 3.5 3.7 5.9 6.2 8.1 2.7 2.4 5.5 4.7 8.2 7.2 1.6 1.4 4.3 4.6 1.3 6.6-1.5 1.1-3.8 1-5.6 1.1q-87.4 0-174.8 0c-22.7 0-45.5 0.7-68.2-0.1-2 0-6-0.7-5.3-4 0.5-1.9 2.4-3.5 3.8-4.7 2.6-2.5 5.5-4.8 8.2-7.3 2.4-2.1 5.4-4.4 4.9-7.9-0.6-3.9-6.8-7.7-9.4-10-2.7-2.4-6.1-4.6-7.5-8zm204.6 17.5c2.1 3.9 5.9 6.4 9.2 9.2 3.3-2.7 7.5-5.3 9.2-9.2 1-2.1 0.5-6.7-2.7-6.6-2.9 0.2-4.5 3.1-5.6 5.4-0.2 0.4-0.5 0.5-0.8 0.5q0 0-0.1 0 0 0 0 0c-0.3 0-0.7-0.1-0.8-0.5-1-2.1-3.3-6.3-6.3-5.3-2.5 0.9-3.3 4.3-2.1 6.5zm-172.5 0c2.1 3.9 5.9 6.4 9.2 9.2 3.3-2.7 7.5-5.3 9.3-9.2 0.9-2.1 0.4-6.7-2.8-6.6-2.9 0.2-4.5 3.1-5.6 5.4-0.2 0.4-0.5 0.5-0.8 0.5q0 0-0.1 0 0 0 0 0c-0.3 0-0.6-0.1-0.8-0.5-1-2.1-3.3-6.3-6.3-5.3-2.5 0.9-3.3 4.3-2.1 6.5z"/>
		<path id="To Do" class="s1" aria-label="To   Do"  d="m96.5 14.4q0-1 0.4-1.7 0.5-0.7 1.2-1.3 0.7-0.5 1.7-0.8 1.1-0.3 2.3-0.5 1.2-0.2 2.6-0.3 1.4-0.1 2.9-0.1 2.1 0 4.3 0.2 2.2 0.2 4.7 0.6 0.5 0.1 0.8 0.4 0.2 0.3 0.2 0.7 0 0.2-0.1 0.5-0.1 0.2-0.3 0.4-0.2 0.2-0.4 0.3-0.2 0.1-0.5 0.1-0.9 0-1.9-0.1-1-0.1-2-0.2-1.1-0.1-2.2-0.2-1.1-0.2-2.3-0.2-0.2 1.3-0.6 2.8-0.3 1.5-0.7 3.1-0.4 1.6-0.8 3.1-0.4 1.6-0.8 3-0.4 1.4-0.8 2.6-0.3 1.3-0.5 2.1-0.1 0.4-0.3 0.8-0.2 0.3-0.5 0.5-0.2 0.3-0.5 0.4-0.2 0.1-0.4 0.1-0.7 0-1.1-0.3-0.5-0.3-0.5-1 0-0.2 0.1-0.5 0.1-1 0.4-2.1 0.2-1 0.6-2.1 0.3-1.1 0.8-2.4 0.4-1.3 0.9-2.8 0.6-1.5 1.2-3.3 0.6-1.8 1.3-4-0.6 0-1.3 0.1-0.6 0-1.2 0.1-0.6 0.1-1.1 0.3-0.6 0.1-1 0.4-0.3 0.2-0.6 0.5-0.2 0.4-0.2 0.8 0 0 0 0.3-0.1 0.2-0.2 0.5-0.2 0.3-0.6 0.5-0.4 0.2-1.1 0.2-0.7 0-1.1-0.2-0.3-0.3-0.5-0.5-0.2-0.4-0.3-0.8zm19.7 6.4l-0.1 0.2q0.3 0.6 0.5 1.4 0.2 0.8 0.2 1.7 0 0.7-0.2 1.4-0.1 0.7-0.4 1.4-0.3 0.6-0.7 1.2-0.4 0.6-1 1-0.5 0.4-1.1 0.7-0.7 0.2-1.4 0.2-1 0-1.8-0.4-0.7-0.5-1.2-1.2-0.4-0.8-0.6-1.7-0.3-0.9-0.3-1.8 0-1.6 0.4-2.7 0.4-1.1 1.1-1.9 0.8-0.9 1.8-1.3 1-0.5 2.3-0.5 1.2 0 2.1 0.3 1 0.4 1.8 1 0.9 0.5 1.6 1.4 0.8 0.9 1.4 1.7l-0.2 1.7q-0.3-0.5-0.9-1-0.5-0.5-1.1-1.1-0.6-0.6-1.2-1-0.6-0.4-1-0.7zm-3.7 6.9q0.4 0 0.7-0.3 0.4-0.5 0.7-1.1 0.3-0.6 0.4-1.5 0.2-0.8 0.2-1.5 0-0.6-0.1-1 0-0.5-0.2-0.8-0.2-0.4-0.4-0.6-0.3-0.2-0.7-0.2-0.4 0-0.9 0.5-0.4 0.4-0.7 1-0.4 0.6-0.5 1.4-0.2 0.8-0.2 1.8 0 0.5 0.1 0.9 0.1 0.4 0.3 0.7 0.2 0.4 0.5 0.6 0.3 0.1 0.8 0.1zm30.6-18q1.9 0 3.4 0.3 1.5 0.3 2.6 0.9 1.1 0.5 1.9 1.3 0.8 0.8 1.2 1.7 0.5 0.9 0.7 1.9 0.3 1.1 0.3 2.2 0 1.4-0.4 3.2-0.3 1.7-0.9 3.1-0.6 1.4-1.6 2.7-0.9 1.2-2 2.1-1.2 0.9-2.6 1.5-1.4 0.5-3 0.5-0.6 0-1.2-0.1-0.5-0.1-1.1-0.2-0.5-0.1-1-0.3-0.5-0.2-0.8-0.4-0.2 0-0.3-0.1-0.1 0-0.1-0.1-0.1-0.1-0.1-0.3 0-0.1 0-0.3 0-1.9 0.1-4 0.1-2 0.4-4.1 0.3-2.2 0.9-3.8 0.6-1.7 1.5-3.1 0.3-0.3 1.5-0.3 1 0 1.5 0.7-0.6 0.7-0.9 1.6-0.4 0.9-0.7 1.8-0.2 0.8-0.4 1.8-0.3 2-0.3 2 0.1 0.1-0.2 2.3-0.2 0.8-0.2 1.3-0.1 0.6-0.1 1 0 0.5 0 0.9 0 0.4 0 0.7 0 0.3 0.1 0.5 0.1 0.2 0.4 0.2 0.2 0.1 0.6 0.1 1.2 0 2.2-0.4 1.1-0.5 2-1.3 0.8-0.8 1.5-1.8 0.8-1 1.3-2.4 0.5-1.3 0.7-2.5 0.3-1.2 0.3-2.3 0-1.4-0.4-2.5-0.5-1-1.3-1.8-0.8-0.7-1.9-1.1-1.1-0.4-2.5-0.4-1 0-2 0.1-0.9 0.1-1.7 0.4-0.9 0.2-1.5 0.6-0.6 0.4-0.9 0.9-0.9 1.3-1.4 2.1-0.6 0.7-1 0.7-0.5 0-0.5-1.2 0-1.2 0.3-2.1 0.3-0.9 0.8-1.6 0.6-0.7 1.3-1.2 0.7-0.5 1.6-0.8 0.9-0.3 1.9-0.5 1-0.1 2-0.1zm18.8 11.1l-0.1 0.2q0.3 0.6 0.5 1.4 0.2 0.8 0.2 1.7 0 0.7-0.2 1.4-0.2 0.7-0.4 1.4-0.3 0.6-0.8 1.2-0.4 0.6-0.9 1-0.5 0.4-1.2 0.7-0.6 0.2-1.3 0.2-1 0-1.8-0.4-0.7-0.5-1.2-1.2-0.4-0.8-0.7-1.7-0.2-0.9-0.2-1.8 0-1.6 0.4-2.7 0.4-1.1 1.1-1.9 0.7-0.9 1.8-1.3 1-0.5 2.3-0.5 1.1 0 2.1 0.3 1 0.4 1.8 1 0.9 0.5 1.6 1.4 0.7 0.9 1.4 1.7l-0.2 1.7q-0.4-0.5-0.9-1-0.5-0.5-1.1-1.1-0.6-0.6-1.2-1-0.6-0.4-1-0.7zm-3.8 6.9q0.4 0 0.8-0.3 0.4-0.5 0.7-1.1 0.3-0.6 0.4-1.5 0.2-0.8 0.2-1.5 0-0.6-0.1-1-0.1-0.5-0.2-0.8-0.2-0.4-0.4-0.6-0.3-0.2-0.7-0.2-0.5 0-0.9 0.5-0.4 0.4-0.7 1-0.4 0.6-0.6 1.4-0.1 0.8-0.1 1.8 0 0.5 0 0.9 0.1 0.4 0.3 0.7 0.2 0.4 0.6 0.6 0.3 0.1 0.7 0.1z"/>
		<g id="&lt;Group&gt;">
			<path id="&lt;Compound Path&gt;" fill-rule="evenodd" class="s1" d="m259.3 46.9c-1.8 3.1-5.5 3.4-8.7 3.5q-56.2 0-112.4 0-50 0-100 0-13.6 0-27.2 0c-3.5 0-13.1-0.6-10.6-6.6 2.3-5.5 8.3-9 12.5-12.9 1.8-1.6 5.8-4.4 3.8-7.1-1.9-2.7-4.5-4.8-7-6.9-2.9-2.5-9.5-6.5-9.5-11.1 0-2.7 1.9-4.5 4.6-5 3.7-0.7 7.6-0.5 11.3-0.5q16.8 0 33.5 0 52 0 103.9 0 43.4 0 86.8 0c6.3 0 25.7-1.2 17.2 9.8-3.9 5.2-11.3 8-14.4 13.7-2.5 4.5 9.3 11.8 12 14.3 2 1.9 6 5.7 4.2 8.8zm-4.4-6.2c-2.7-2.5-5.5-4.8-8.2-7.2-2.5-2.2-5.9-4.6-6.2-8.1-0.3-3.4 4.8-6.9 6.8-8.7 2.5-2.2 5.4-4.2 7.6-6.7 1.1-1.2 4.8-5 1.3-6.6q-1.9-1-4.1-1c-7.5-0.3-15.1-0.1-22.6-0.1q-97.1 0-194.3 0-12.7 0-25.3 0c-1.9 0-9.2 0.1-7.6 4.1 1.4 3.4 4.8 5.6 7.5 8 2.6 2.3 8.8 6.1 9.4 10 0.5 3.5-2.5 5.8-4.9 7.9-2.7 2.5-5.6 4.8-8.2 7.3-1.4 1.2-3.3 2.8-3.8 4.7-0.7 3.3 3.3 4 5.3 4 22.7 0.8 45.5 0.1 68.2 0.1q87.4 0 174.8 0c1.8-0.1 4.1 0 5.6-1.1 3-2 0.3-5.2-1.3-6.6z"/>
			<path id="&lt;Compound Path&gt;" fill-rule="evenodd" class="s1" d="m227.6 19.6c2 6.8-6.5 11.8-10.8 15.5q-0.2 0.2-0.5 0.2-0.1 0-0.2 0 0 0-0.1 0c-0.2 0-0.4-0.1-0.6-0.2-3.9-3.4-13.2-9.1-10.7-15.5 0.9-2.5 2.7-4.4 5.5-4.2 2.6 0.1 4.6 2.3 5.9 4.6 1.4-2.3 3.3-4.5 6-4.6 2.7-0.2 4.7 1.7 5.5 4.2zm-5-2.3c-2.9 0.2-4.5 3.1-5.6 5.4-0.2 0.4-0.5 0.5-0.8 0.5q0 0-0.1 0 0 0 0 0c-0.3 0-0.7-0.1-0.8-0.5-1-2.1-3.3-6.3-6.3-5.3-2.5 0.9-3.3 4.3-2.1 6.5 2.1 3.9 5.9 6.4 9.2 9.2 3.3-2.7 7.5-5.3 9.2-9.2 1-2.1 0.5-6.7-2.7-6.6z"/>
			<path id="&lt;Compound Path&gt;" fill-rule="evenodd" class="s1" d="m55.1 19.6c2 6.8-6.4 11.8-10.7 15.5q-0.3 0.2-0.6 0.2-0.1 0-0.2 0 0 0-0.1 0c-0.2 0-0.4-0.1-0.6-0.2-3.9-3.4-13.2-9.1-10.7-15.5 0.9-2.5 2.7-4.4 5.5-4.2 2.7 0.1 4.6 2.3 5.9 4.6 1.4-2.3 3.3-4.5 6-4.6 2.7-0.2 4.8 1.7 5.5 4.2zm-5-2.3c-2.9 0.2-4.5 3.1-5.6 5.4-0.2 0.4-0.5 0.5-0.8 0.5q0 0-0.1 0 0 0 0 0c-0.3 0-0.6-0.1-0.8-0.5-1-2.1-3.3-6.3-6.3-5.3-2.5 0.9-3.3 4.3-2.1 6.5 2.1 3.9 5.9 6.4 9.2 9.2 3.3-2.7 7.5-5.3 9.3-9.2 0.9-2.1 0.4-6.7-2.8-6.6z"/>
			<path id="&lt;Path&gt;" class="s1" d="m197.6 24.4q-9.9 0-19.7 0c-1.3 0-1.3 2 0 2q9.8 0 19.7 0c1.2 0 1.2-2 0-2z"/>
			<path id="&lt;Path&gt;" class="s1" d="m81.9 24.4q-9.8 0-19.7 0c-1.3 0-1.3 2 0 2q9.9 0 19.7 0c1.3 0 1.3-2 0-2z"/>
		</g>
	</g>
</svg>